PathFileType	4	(X/Y/Z)	C:/Users/beibeiliu/ov580/test_trc/User3\sequence.16_training_dense_left.trc
DataRate	CameraRate	NumFrames	NumMarkers	Units	OrigDataRate	OrigDataStartFrame	OrigNumFrames
120	120	23	19	mm	120	134	266
Frame#	Time	ThumbCMC			ThumbMCP			ThumbIP			ThumbTip			IndexMCP			IndexPIP			IndexTip			MiddleMCP			MiddlePIP			MiddleTip			RingMCP			RingPIP			RingTip			PinkyMCP			PinkyPIP			PinkyTip			BackHand1			BackHand2			BackHand3	
		X0	Y0	Z0	X1	Y1	Z1	X2	Y2	Z2	X3	Y3	Z3	X4	Y4	Z4	X5	Y5	Z5	X6	Y6	Z6	X7	Y7	Z7	X8	Y8	Z8	X9	Y9	Z9	X10	Y10	Z10	X11	Y11	Z11	X12	Y12	Z12	X13	Y13	Z13	X14	Y14	Z14	X15	Y15	Z15	X16	Y16	Z16	X17	Y17	Z17	X18	Y18	Z18	
133	1.10833	-166.094	-11.7352	19.5648	-149.765	-9.57471	-5.29906	-145.257	-2.65263	-34.9823	-148.359	1.13615	-62.8148	-178.004	33.423	-38.3783	-171.627	22.9585	-68.9398	-163.192	-7.69577	-77.0919	-200.004	34.189	-48.4343	-187.447	20.1457	-76.0367	-185.239	-17.9936	-71.6924	-220.432	21.9575	-46.0279	-207.774	7.60326	-72.1627	-196.768	-24.2814	-61.4692	-234.447	8.41558	-41.6125	-225.7	-2.35838	-66.1716	-211.02	-26.5033	-63.0043	-227.916	12.0616	11.0897	-230.45	-5.19131	35.1686	-198.939	10.5606	27.5134	
134	1.11667	-167.149	-15.8705	21.3791	-152.248	-9.02111	-8.58071	-145.388	-2.90017	-35.9843	-148.687	-1.51945	-60.1556	-176.579	33.3033	-37.8127	-163.52	21.6656	-69.4078	-163.652	-5.53963	-77.0911	-195.328	36.3678	-46.3852	-188.732	24.4393	-75.3315	-179.816	-16.8272	-70.4122	-217.54	24.0967	-45.6794	-206.111	9.1986	-72.5906	-198.603	-24.2664	-62.9386	-232.031	12.0079	-43.6659	-219.18	-0.393207	-65.3544	-207.421	-26.2357	-62.7984	-225.742	13.3385	6.43067	-227.25	-0.887617	33.1206	-194.925	12.5189	27.11	
135	1.125	-166.516	-16.9757	24.3298	-149.141	-12.1342	-4.59367	-143.717	-3.99869	-35.9833	-145.13	-2.15655	-60.8356	-174.377	33.7103	-40.634	-167.141	22.0503	-69.1815	-163.348	-6.67368	-77.6732	-195.111	36.9706	-44.7437	-185.651	26.5684	-73.4436	-183.921	-16.8378	-71.4011	-211.204	26.3299	-45.8626	-207.249	9.17632	-73.3101	-195.731	-20.6692	-65.5286	-229.703	10.5876	-37.5425	-220.128	0.390315	-65.5354	-209.176	-25.7931	-65.7466	-223.593	13.65	10.0132	-231.203	-3.06597	31.2593	-194.448	10.7101	28.0419	
136	1.13333	-169.402	-13.9466	20.555	-149.834	-9.15523	-6.28455	-141.082	-4.76164	-31.847	-145.778	-0.300263	-59.7415	-173.715	35.0736	-39.1176	-167.281	25.6012	-67.5402	-162.554	-2.13457	-77.4817	-195.076	38.8799	-44.0361	-185.021	26.8261	-73.86	-178.097	-13.3183	-70.9609	-214.689	25.8728	-43.2983	-207.295	15.508	-70.3465	-197.195	-20.0492	-66.4489	-229.146	13.3375	-41.833	-222.974	1.61552	-65.0335	-206.797	-26.7274	-65.1506	-222.899	12.0794	12.1902	-231.19	-3.20556	33.5468	-196.932	10.9754	28.0454	
137	1.14167	-169.972	-13.4487	22.3974	-149.69	-10.4518	-2.62617	-145.152	-1.95469	-33.0829	-149.608	0.936431	-57.9789	-174.407	36.4121	-32.8567	-162.303	27.9954	-65.2399	-156.988	-0.75938	-75.2344	-195.289	38.2059	-39.2275	-184.803	28.3509	-73.2072	-181.918	-10.6844	-72.7411	-216.68	27.1322	-41.1359	-209.802	15.9547	-69.892	-195.315	-17.3848	-66.1503	-228.449	13.9912	-39.1676	-220.803	2.79304	-63.928	-208.941	-20.4415	-66.9246	-224.202	13.9743	13.0025	-230.09	-4.92061	34.7835	-194.37	12.2482	30.2555	
138	1.15	-169.782	-16.5365	24.9619	-151.729	-10.4603	-1.99814	-142.907	0.64247	-34.3691	-148.443	2.4978	-57.2709	-174.186	38.6581	-33.0813	-166.354	29.8866	-65.2275	-157.89	-0.186761	-74.4982	-196.964	41.8025	-41.5256	-185.691	29.8056	-71.5004	-180.462	-7.36999	-72.5773	-214.29	29.9711	-38.3909	-205.743	19.4546	-68.4444	-200.234	-13.3022	-67.5535	-225.367	16.8186	-38.0964	-220.129	5.54475	-63.5388	-208.961	-17.3923	-66.2989	-226.395	17.7627	11.2019	-229.335	-5.4387	37.5196	-193.546	12.6056	30.1242	
139	1.15833	-165.952	-14.084	23.7962	-149.609	-7.42089	-3.76227	-145.364	1.55993	-32.5737	-151.083	4.05281	-53.1888	-171.513	40.3782	-32.2023	-163.114	31.4929	-63.8917	-160.616	5.38292	-73.8952	-197.501	43.6663	-42.1834	-186.805	34.9756	-68.9483	-178.706	-3.80196	-72.2671	-213.448	31.3498	-40.7395	-206.383	17.9887	-69.2807	-195.451	-12.5534	-65.3072	-229.025	16.7432	-33.8001	-221.683	9.51249	-61.2042	-209.96	-19.3273	-63.3937	-223.903	14.4542	15.2531	-229.955	-0.573531	34.5932	-196.281	9.98167	32.1794	
140	1.16667	-167.934	-13.188	23.6623	-149.166	-8.58641	-2.08577	-143.054	1.36886	-31.7261	-150.452	6.29225	-57.5778	-175.081	39.6433	-33.0317	-166.141	31.2819	-64.9262	-161.836	4.29488	-74.733	-194.532	42.6716	-37.7306	-187.353	34.3057	-69.6157	-179.13	-6.02222	-69.9374	-211.437	32.9739	-39.4905	-202.659	18.401	-69.3096	-193.767	-11.6264	-63.8137	-227.663	18.5804	-36.3413	-219.673	10.1683	-61.3368	-207.286	-13.8869	-62.458	-223.436	15.663	13.8401	-228.509	-4.46089	37.8632	-192.415	14.1033	32.1782	
141	1.175	-166.012	-13.6418	24.8171	-151.206	-7.01227	-2.59605	-139.635	2.0774	-30.2341	-148.885	5.32192	-52.8638	-172.117	39.7012	-30.2867	-164.918	34.2567	-60.9282	-156.869	2.72055	-73.2617	-196.613	43.4909	-37.7255	-182.273	32.3316	-70.9322	-177.186	-4.16471	-70.5382	-214.193	33.2451	-42.9468	-206.313	19.9278	-67.9409	-198.151	-10.4465	-64.9971	-228.259	20.6412	-39.6808	-220.171	11.4845	-61.7339	-205.164	-18.838	-63.0883	-223.416	18.1939	10.4133	-230.002	-0.447877	34.5086	-195.588	11.1524	30.7414	
142	1.18333	-164.615	-15.3734	26.4151	-149.902	-6.83203	-2.34887	-141.123	2.27401	-31.1038	-149.565	6.26458	-54.5094	-173.128	40.7657	-30.0792	-166.839	33.0198	-62.6895	-160.204	5.44598	-72.7954	-192.962	44.0291	-39.5905	-186.251	34.2432	-70.0887	-181.335	-6.29208	-68.8509	-211.238	32.8443	-39.3094	-206.004	20.1548	-67.9095	-191.69	-12.2651	-61.6463	-228.908	19.781	-40.1923	-216.753	10.666	-61.2461	-208.147	-18.9431	-64.2059	-222.778	17.0877	12.5947	-231.611	-0.744095	34.1193	-196.823	10.9439	32.008	
143	1.19167	-165.516	-13.2767	25.0342	-151.678	-6.61474	-3.25564	-141.361	1.82128	-30.4395	-148.506	6.51588	-54.8614	-172.472	39.9107	-31.0778	-164.909	33.9509	-62.1022	-158.103	4.0379	-71.785	-196.242	44.586	-41.694	-186.493	32.4818	-71.0122	-177.579	-5.82812	-68.6775	-212.682	32.4405	-39.4663	-204.961	17.4472	-69.4907	-195.635	-10.2928	-65.2819	-229.973	17.4072	-36.5597	-216.768	9.69541	-61.5826	-206.816	-21.8594	-61.6103	-221.595	19.6137	12.4915	-231.546	-2.27767	34.1576	-196.8	9.95842	30.4147	
144	1.2	-166.128	-13.4911	25.025	-147.647	-4.24754	-3.13522	-140.004	3.58466	-31.0191	-144.394	8.40668	-57.6021	-172.786	40.9378	-30.7264	-160.873	32.6827	-61.6456	-154.517	1.13057	-70.6179	-196.129	44.1363	-39.4585	-185.936	35.4463	-69.4908	-175.22	-5.36127	-68.1984	-210.155	33.2078	-44.0013	-204.305	21.3222	-67.8411	-195.008	-14.5153	-62.6865	-225.819	16.7565	-36.3141	-216.759	6.16484	-62.629	-207.844	-18.5576	-63.3885	-221.823	18.2878	12.4248	-230.493	-1.88258	35.1797	-194.286	12.9293	29.1573	
145	1.20833	-163.941	-7.4707	23.682	-148.386	-1.91645	-2.32673	-139.729	6.61166	-31.7822	-143.963	9.06196	-56.0031	-173.352	42.018	-35.5761	-163.134	34.4975	-62.21	-154.584	6.1224	-70.7894	-198.02	42.5813	-40.7966	-187.376	34.0107	-70.6239	-173.766	-6.89607	-69.0348	-211.323	31.2284	-40.4096	-204.446	17.9317	-69.5021	-192.205	-13.5539	-61.709	-228.564	17.7215	-43.0932	-218.607	4.97607	-64.0096	-206.535	-21.9164	-62.777	-225.687	15.7228	10.1819	-232.683	-1.72819	34.1005	-195.393	12.7342	30.6816	
146	1.21667	-169.424	-4.52705	23.9713	-151.267	2.49597	-1.98302	-135.837	9.21515	-27.5984	-144.417	10.4928	-53.2006	-178.961	42.7315	-37.2101	-163.644	36.6987	-62.575	-152.947	2.61634	-71.3121	-198.479	43.2377	-42.834	-187.829	32.2066	-73.268	-173.294	-3.9712	-70.8232	-214.042	30.5136	-46.8698	-202.91	13.7427	-73.2013	-192.184	-12.4928	-65.8442	-229.031	12.3515	-43.8298	-215.694	4.13432	-65.0572	-199.224	-22.4941	-63.0719	-226.869	14.3285	8.23241	-233.008	-1.23108	31.2764	-201.589	16.6907	29.6074	
147	1.225	-169.504	3.49958	22.4984	-149.186	9.97801	-1.5803	-143.755	15.5959	-30.0723	-142.435	15.7467	-56.6498	-183.144	44.5252	-39.3947	-169.978	35.8107	-67.3974	-154.966	8.68923	-73.2293	-206.987	38.7499	-49.8074	-192.098	31.4899	-76.702	-173.132	-2.1468	-74.5174	-220.813	23.6102	-48.9707	-204.43	12.1388	-74.6969	-189.213	-17.2588	-65.4526	-232.977	6.92895	-46.733	-214.319	-2.40318	-67.6979	-196.928	-26.3834	-63.6025	-232.359	12.7968	2.33921	-232.169	-4.51987	32.7447	-200.994	18.8122	27.2426	
148	1.23333	-171.526	10.8809	23.8958	-154.969	17.9573	-5.53949	-146.493	21.5616	-32.1893	-143.859	18.4766	-58.9834	-193.668	41.1619	-44.1263	-179.521	32.1941	-72.5423	-159.506	5.27171	-76.1118	-211.962	35.7766	-52.5634	-196.503	26.0996	-81.4915	-175.487	-6.68592	-77.1978	-225.914	16.5097	-54.1123	-209.117	6.90089	-77.8166	-185.09	-16.0303	-68.0764	-233.379	-0.520572	-47.0657	-215.994	-7.26868	-69.5286	-194.837	-29.2271	-65.1544	-235.11	9.15771	-0.525699	-233.142	-3.84274	32.6391	-208.701	22.0063	22.4853	
149	1.24167	-179.127	16.093	20.3073	-158.294	23.4841	-5.41307	-150.35	27.7194	-37.996	-152.066	20.6569	-63.6391	-200.794	36.8278	-53.8001	-187.077	27.6779	-76.5434	-158.75	5.63178	-75.6342	-218.383	28.2504	-55.8874	-203.971	18.8634	-85.7288	-171.221	-9.24034	-77.6945	-227.156	10.9487	-55.8734	-211.036	-2.22286	-80.5379	-188.427	-21.7807	-72.8789	-234.273	-10.083	-46.1206	-221.699	-16.6214	-70.009	-194.865	-33.0151	-66.2832	-240.414	3.09125	-2.41429	-238.343	-8.94091	27.8935	-214.464	24.4329	19.8203	
150	1.25	-186.577	21.3025	15.3705	-167.731	27.7303	-12.2944	-156.77	30.6724	-36.6739	-153.852	23.0952	-62.9635	-208.617	30.3347	-54.8374	-186.775	24.1367	-81.0147	-163.557	3.68907	-79.0486	-224.354	15.7997	-63.4884	-203.196	5.09697	-87.9652	-173.663	-11.0634	-79.3195	-228.455	1.9694	-60.2607	-210.136	-12.1089	-81.1155	-183.501	-25.7813	-70.8117	-235.58	-20.7382	-49.0235	-216.44	-25.8441	-69.6076	-188.628	-38.4619	-67.7856	-240.867	-2.74342	-0.851763	-238.795	-10.6395	26.1264	-222.801	23.1642	15.9673	
151	1.25833	-191.107	27.8453	11.7848	-177.426	28.1191	-14.873	-164.505	32.2109	-44.8112	-162.656	18.4555	-65.2864	-214.483	22.2613	-58.4643	-193.399	15.3805	-83.509	-163.906	1.53159	-80.2325	-226.114	3.89184	-63.8246	-203.392	-3.76316	-89.8625	-168.182	-16.1662	-75.5755	-228.764	-12.9259	-62.8887	-206.298	-22.2308	-80.7457	-179.705	-31.0937	-71.3887	-229.846	-29.3562	-49.2849	-212.63	-37.3935	-68.7341	-186.352	-44.0234	-66.5121	-245.377	-12.0532	-6.69737	-241.829	-16.3965	24.243	-230.456	16.1088	7.37265	
152	1.26667	-198.668	27.2115	7.22351	-181.457	30.0653	-16.0151	-170.01	30.7598	-45.6611	-164.452	16.9933	-67.1744	-216.304	12.533	-65.3177	-193.796	7.64854	-87.5447	-165.945	-0.12787	-85.0079	-224.837	-8.47142	-68.6021	-199.567	-12.5463	-90.7944	-165.391	-19.8308	-75.2925	-225.278	-24.0803	-60.3231	-202.737	-33.0626	-79.5728	-169.982	-35.4379	-65.4239	-224.439	-44.9465	-47.5845	-203.815	-44.5807	-65.9583	-176.418	-45.8886	-61.4036	-241.991	-20.4416	-5.3842	-241.75	-17.5939	23.4272	-234.589	11.0873	5.93326	
153	1.275	-205.641	23.4433	3.45046	-187.429	30.149	-23.351	-177.183	23.0248	-50.4146	-167.117	10.9389	-67.9898	-219.172	-1.87224	-64.7399	-193.158	-3.89998	-91.0272	-163.259	-7.13752	-85.1895	-221.533	-18.9641	-73.1642	-195.301	-25.2432	-90.0137	-160.341	-19.5418	-73.6274	-220.275	-39.6696	-58.2403	-192.215	-43.1129	-77.7725	-165.893	-36.7926	-65.5241	-215.253	-50.7872	-44.9021	-191.855	-55.193	-62.0387	-167.263	-50.0214	-56.9502	-239.998	-31.7641	-9.99934	-240.931	-26.3464	24.2105	-239.136	4.20131	3.22229	
154	1.28333	-211.319	20.7038	-0.553669	-192.283	27.3754	-29.8413	-178.676	19.7978	-57.9814	-170.195	1.02599	-69.1694	-218.368	-10.0408	-72.2003	-193.752	-15.3843	-89.6827	-165.52	-10.9728	-86.907	-218.553	-32.4333	-70.0272	-191.25	-31.0433	-89.5159	-156.458	-20.9115	-70.4552	-215.207	-43.7277	-57.2265	-184.558	-49.9727	-73.1008	-159.471	-38.3359	-59.7816	-208.221	-60.7779	-40.414	-185.614	-57.8695	-59.3523	-161.849	-51.6039	-52.4269	-237.936	-35.859	-7.88125	-238.76	-31.0217	24.6004	-240.049	-1.40384	-2.99789	
155	1.29167	-215.918	20.2175	-1.02379	-197.678	19.7961	-31.3975	-182.28	17.1176	-57.4582	-169.462	-1.17526	-74.4703	-219.433	-14.5747	-70.5194	-193.043	-17.1633	-92.6597	-163.45	-10.5349	-87.5401	-216.637	-37.7267	-69.9649	-184.715	-34.2491	-87.8908	-156.191	-23.334	-70.1562	-210.626	-49.9565	-57.4392	-182.25	-54.7556	-71.5661	-156.502	-36.8767	-58.4111	-201.52	-63.6793	-41.6038	-178.296	-63.8334	-53.7261	-155.203	-50.8389	-50.4811	-237.035	-40.6225	-8.01634	-240.388	-32.7732	24.0744	-243.651	-9.23101	-0.961954	
